<?xml version="1.0" encoding="UTF-8" standalone="no"?>
<!DOCTYPE svg PUBLIC "-//W3C//DTD SVG 1.1//EN" "http://www.w3.org/Graphics/SVG/1.1/DTD/svg11.dtd">
<svg width="100%" height="100%" viewBox="0 0 800 600" version="1.1" xmlns="http://www.w3.org/2000/svg" xmlns:xlink="http://www.w3.org/1999/xlink" xml:space="preserve" xmlns:serif="http://www.serif.com/" style="fill-rule:evenodd;clip-rule:evenodd;stroke-linecap:round;stroke-linejoin:round;stroke-miterlimit:1.5;">
    <g transform="matrix(0.977946,0,0,1,14.1133,1.99918)">
        <path d="M628.65,199.376C628.65,138.716 597.364,74.524 401.973,74.214C227.733,73.937 179.102,138.716 179.102,199.376L179.102,434.537C179.102,495.197 245.885,553.8 406.633,551.722C567.504,549.642 628.65,495.197 628.65,434.537L628.65,199.376Z" style="fill:rgb(255,224,133);stroke:black;stroke-width:19.21px;"/>
    </g>
    <path d="M247.099,147.876C247.099,147.876 323.057,168.772 415.074,167.451C543.116,165.612 580.62,139.745 580.62,139.745C580.62,139.745 532.955,175.677 415.297,176.027C305.326,176.354 247.099,147.876 247.099,147.876Z"/>
    <g>
        <g transform="matrix(2.61319,0,0,2.75697,-836.671,-386.064)">
            <g transform="matrix(1,0,0,1,7.66978,23.8367)">
                <ellipse cx="429.326" cy="241.998" rx="11.519" ry="10.988" style="fill:rgb(40,40,40);"/>
            </g>
            <g transform="matrix(1,0,0,1,91.6877,26.7434)">
                <ellipse cx="348.771" cy="236.205" rx="3.624" ry="3.561" style="fill:rgb(152,152,152);"/>
            </g>
        </g>
        <g transform="matrix(2.61319,0,0,2.75697,-641.266,-383.94)">
            <g transform="matrix(1,0,0,1,7.66978,23.8367)">
                <ellipse cx="429.326" cy="241.998" rx="11.519" ry="10.988" style="fill:rgb(40,40,40);"/>
            </g>
            <g transform="matrix(1,0,0,1,91.6877,26.7434)">
                <ellipse cx="348.771" cy="236.205" rx="3.624" ry="3.561" style="fill:rgb(152,152,152);"/>
            </g>
        </g>
        <g transform="matrix(1,0,0,1,-6.97724,-13.7786)">
            <ellipse cx="272.425" cy="422.704" rx="35.247" ry="33.319" style="fill:rgb(255,191,0);"/>
        </g>
        <g transform="matrix(1,0,0,1,273.509,-14.4037)">
            <ellipse cx="272.425" cy="422.704" rx="35.247" ry="33.319" style="fill:rgb(255,191,0);"/>
        </g>
    </g>
    <path id="mouth" d="M371.64,437.465C371.935,425.859 425.048,409.731 450.892,436.783C454.104,488.624 417.974,494.798 413.305,495.548C408.636,496.298 370.231,492.875 371.64,437.465Z" style="fill:rgb(44,44,44);"/>
</svg>
